<svg version="1.1" id="Layer_1" xmlns="http://www.w3.org/2000/svg" xmlns:xlink="http://www.w3.org/1999/xlink" x="0px" y="0px"
	 width="100%" viewBox="0 0 600 170" enable-background="new 0 0 600 170" xml:space="preserve">
<path fill="#FFFFFF" opacity="1.000000" stroke="none" 
	d="
M439.000000,171.000000 
	C292.666656,171.000000 146.833328,171.000000 1.000000,171.000000 
	C1.000000,114.333336 1.000000,57.666668 1.000000,1.000000 
	C201.000000,1.000000 401.000000,1.000000 601.000000,1.000000 
	C601.000000,57.666668 601.000000,114.333336 601.000000,171.000000 
	C547.166687,171.000000 493.333344,171.000000 439.000000,171.000000 
M385.001984,15.245353 
	C384.016144,14.454757 383.030304,13.664161 381.770233,12.314585 
	C381.171906,12.260212 380.573547,12.205839 379.500671,12.044291 
	C379.500671,12.044291 379.025299,12.147646 378.352692,12.013444 
	C377.900696,12.062627 377.448669,12.111810 376.300323,12.049305 
	C375.488953,13.018319 374.677612,13.987334 373.416290,15.094217 
	C373.128571,15.278825 372.976685,15.541869 372.309235,16.229715 
	C370.838867,20.467760 369.368500,24.705803 367.972900,28.978319 
	C367.972900,28.978319 367.954315,28.898142 367.472260,29.085735 
	C367.366882,29.386332 367.261536,29.686930 367.005859,30.413589 
	C367.005859,30.413589 366.954590,30.862463 366.393616,31.164331 
	C366.216492,31.765972 366.039368,32.367611 365.223633,33.371189 
	C361.822693,42.467022 358.421783,51.562859 354.594482,61.798950 
	C353.108276,57.636948 352.125793,54.725887 351.032928,51.856884 
	C348.392700,44.925987 344.493866,39.567650 335.061890,40.020290 
	C282.556122,40.011688 230.050369,39.990276 177.544724,40.060547 
	C176.073242,40.062515 174.603058,41.044537 172.670486,41.265736 
	C171.992096,41.408501 171.313705,41.551266 170.325424,41.152161 
	C169.838425,41.418774 169.351410,41.685387 168.238052,42.342224 
	C168.208313,43.560898 168.178558,44.779572 168.282898,46.746532 
	C171.212097,47.500618 174.139572,48.904419 177.070740,48.912151 
	C227.839783,49.046078 278.609406,49.060581 329.378448,48.928032 
	C334.506256,48.914646 339.135620,49.008831 342.020905,54.576992 
	C342.020905,54.576992 342.184662,55.025742 342.155548,55.526897 
	C342.422699,55.714211 342.689880,55.901527 342.985992,56.012409 
	C342.985992,56.012409 342.914612,56.052212 342.999725,56.803337 
	C345.316956,61.246040 347.634186,65.688744 350.154022,70.656395 
	C350.728119,71.119408 351.302216,71.582413 352.193665,72.680099 
	C354.464905,75.227440 356.277740,73.519463 358.848846,71.978523 
	C361.605591,66.544456 364.657959,61.237141 367.054321,55.648529 
	C371.348846,45.633312 375.248688,35.448860 379.512604,24.839626 
	C380.763245,28.668198 381.965271,32.347878 383.136444,36.545750 
	C383.412964,36.739956 383.689453,36.934158 384.016724,37.584419 
	C384.016724,37.584419 384.163055,38.019333 384.127441,38.535130 
	C384.404724,38.723003 384.682037,38.910877 384.974670,39.019878 
	C384.974670,39.019878 384.901855,39.053886 385.017822,39.818569 
	C386.201477,43.145954 386.631866,47.012383 390.989044,48.023903 
	C390.989044,48.023903 390.907318,48.058025 391.288879,48.779186 
	C396.858978,49.130856 402.429077,49.482525 408.816864,49.648071 
	C410.586853,49.433624 412.356689,49.033066 414.126831,49.031837 
	C464.084381,48.997265 514.041931,49.013245 563.999451,48.962994 
	C565.913574,48.961067 568.032715,48.800987 569.694153,47.980885 
	C572.392944,46.648781 572.555176,44.209259 570.924072,41.816940 
	C569.240540,39.347836 567.242310,38.887772 564.792603,41.389351 
	C564.471985,41.387585 564.164185,41.443981 563.857178,40.612854 
	C562.070068,40.406624 560.283325,40.024826 558.495789,40.021076 
	C538.663330,39.979485 518.830688,39.977116 498.998108,40.002144 
	C469.335815,40.039574 439.673615,40.107410 409.357605,40.021358 
	C408.916870,40.069721 408.476166,40.118088 407.360168,40.045094 
	C406.906708,40.087467 406.453217,40.129845 405.201782,40.333515 
	C396.904907,42.189842 396.110016,41.777809 392.955444,34.111496 
	C391.022552,29.414114 389.058044,24.729729 387.688110,19.717245 
	C386.814606,18.445715 385.941132,17.174183 385.030151,15.992801 
	C385.030151,15.992801 385.107971,15.933826 385.001984,15.245353 
M438.000000,83.500191 
	C438.000000,101.247482 438.000000,118.994774 438.000000,136.711639 
	C446.963593,136.711639 455.359314,136.711639 464.169373,136.711639 
	C464.169373,130.357086 464.169373,124.285706 464.169373,118.000923 
	C467.896912,118.000923 471.215393,117.858582 474.508087,118.087440 
	C475.499207,118.156326 476.812805,119.039200 477.302582,119.923622 
	C479.416412,123.740509 481.450562,127.622169 483.184082,131.623077 
	C484.827209,135.415329 486.776672,137.654083 491.563324,137.140350 
	C497.159058,136.539780 502.868713,137.000000 508.528931,137.000000 
	C510.342987,137.000000 512.157043,137.000000 513.700684,137.000000 
	C508.795135,127.785004 504.262817,119.271103 500.005829,111.274414 
	C501.646118,109.506836 502.968994,108.339943 503.980652,106.947014 
	C508.744904,100.387421 508.916840,93.022438 508.083191,85.289017 
	C507.218079,77.263527 498.686981,66.372330 490.943787,65.122620 
	C484.024506,64.005890 476.989777,63.306351 469.985138,63.086571 
	C459.408752,62.754726 448.814270,63.000000 438.000000,63.000000 
	C438.000000,69.891945 438.000000,76.196182 438.000000,83.500191 
M42.311970,63.000355 
	C35.026749,63.000355 27.741529,63.000355 20.312252,63.000355 
	C20.312252,87.887894 20.312252,112.273659 20.312252,136.625946 
	C29.017710,136.625946 37.405685,136.625946 46.149956,136.625946 
	C46.149956,127.982689 46.149956,119.709549 46.149956,110.969376 
	C54.557663,110.969376 62.607620,110.969376 71.189087,110.969376 
	C71.189087,119.300056 71.189087,128.042679 71.189087,136.751862 
	C79.996872,136.751862 88.265083,136.751862 96.690163,136.751862 
	C96.690163,112.116997 96.690163,87.731232 96.690163,63.371643 
	C87.987289,63.371643 79.599419,63.371643 70.854874,63.371643 
	C70.854874,71.678467 70.854874,79.619194 70.854874,87.681503 
	C62.430817,87.681503 54.377846,87.681503 45.998932,87.681503 
	C45.998932,80.393356 46.124912,73.414764 45.876499,66.449524 
	C45.834473,65.271225 44.180637,64.150406 42.311970,63.000355 
M529.508057,63.000000 
	C525.077820,63.000000 520.647522,63.000000 516.285400,63.000000 
	C516.285400,87.976860 516.285400,112.360802 516.285400,136.722610 
	C538.624146,136.722610 560.676392,136.722610 582.713745,136.722610 
	C582.713745,129.710968 582.713745,122.979729 582.713745,115.850647 
	C569.026489,115.850647 555.620422,115.850647 542.291687,115.850647 
	C542.291687,113.374817 542.291687,111.309868 542.291687,108.831444 
	C554.310303,108.831444 566.042480,108.831444 577.695496,108.831444 
	C577.695496,102.006676 577.695496,95.607430 577.695496,88.839653 
	C565.638062,88.839653 553.880676,88.839653 542.123230,88.839653 
	C542.004395,88.245041 541.885498,87.650421 541.766602,87.055809 
	C543.182434,86.703880 544.596069,86.056740 546.014343,86.046608 
	C557.600159,85.963875 569.186768,86.000015 580.696045,86.000015 
	C580.696045,78.006836 580.696045,70.609062 580.696045,63.000000 
	C563.763611,63.000000 547.134216,63.000000 529.508057,63.000000 
M349.254578,136.707397 
	C358.043610,136.707397 366.832642,136.707397 375.698212,136.707397 
	C376.588409,133.516357 377.481567,130.314682 378.406250,127.000000 
	C384.945679,127.000000 391.269257,127.208885 397.571808,126.934715 
	C402.727325,126.710442 407.385742,126.559868 407.926697,133.492722 
	C408.018463,134.668976 408.938965,135.780563 409.378723,136.714264 
	C418.390259,136.714264 427.134399,136.714264 436.652893,136.714264 
	C434.634644,131.592560 432.726624,127.018959 431.027374,122.369049 
	C428.996033,116.810387 427.158295,111.181221 425.209381,105.592110 
	C422.476990,97.755936 419.665680,89.946846 416.991699,82.090912 
	C415.232239,76.921844 413.890472,71.595863 411.854614,66.544518 
	C411.237183,65.012543 408.952728,63.197506 407.387909,63.155704 
	C396.423370,62.862823 385.447266,63.000587 374.446747,63.000587 
	C371.667084,70.928314 369.006104,78.664467 366.242706,86.363869 
	C362.296021,97.360207 358.200592,108.303619 354.316071,119.321594 
	C352.394073,124.773064 350.801575,130.340714 349.254578,136.707397 
M106.511116,113.988632 
	C103.944695,121.487602 101.378265,128.986572 98.708092,136.788696 
	C108.141716,136.788696 116.919052,136.788696 125.645981,136.788696 
	C126.590286,133.472733 127.475113,130.365646 128.433563,127.000000 
	C135.010696,127.000000 141.504608,127.320084 147.950348,126.900368 
	C153.263580,126.554382 157.339401,127.024208 157.917572,133.516754 
	C158.023361,134.704666 158.950836,135.819412 159.320343,136.593567 
	C168.475052,136.593567 177.161911,136.593567 186.428513,136.593567 
	C182.847260,127.099030 179.277634,118.217415 176.141296,109.185349 
	C171.309555,95.270805 166.571564,81.315086 162.277695,67.229332 
	C161.367966,64.245010 160.297882,63.014950 157.485214,63.010582 
	C146.517578,62.993553 135.549896,63.003635 124.268761,63.003635 
	C118.453560,79.876770 112.692078,96.594025 106.511116,113.988632 
M334.317963,132.964813 
	C343.215393,125.414215 350.037170,116.776093 350.057800,104.001175 
	C342.067810,104.001175 334.749390,103.849899 327.447083,104.125252 
	C325.935913,104.182236 323.556244,105.534668 323.164246,106.786957 
	C321.345978,112.595367 317.709869,116.541466 312.869171,116.998367 
	C303.966797,117.838646 298.582733,115.942268 296.404602,109.411316 
	C294.849365,104.747993 294.869629,99.350502 295.158630,94.336624 
	C295.479218,88.775070 300.057159,84.802719 305.583862,84.010208 
	C312.362396,83.038193 320.428284,85.453369 321.724426,89.736069 
	C323.027832,94.042824 325.019592,93.303185 327.911469,92.051018 
	C334.215607,89.321365 340.565887,86.698364 346.923706,84.020683 
	C345.321899,75.068573 338.371063,69.835152 331.272247,66.352249 
	C324.533661,63.046070 316.366333,61.367973 308.814178,61.325939 
	C299.164642,61.272224 289.739319,63.613083 281.467041,69.931870 
	C274.797241,75.026588 271.383087,81.985481 269.297485,89.176804 
	C266.759918,97.926422 267.131500,107.090096 270.871918,116.040741 
	C273.718323,122.851982 277.824799,128.671753 283.841370,132.121841 
	C300.020966,141.399750 316.816833,141.643616 334.317963,132.964813 
M235.235245,62.012074 
	C229.871704,62.008286 224.502777,61.849255 219.145813,62.034988 
	C209.757385,62.360489 202.127060,66.834999 195.567154,73.091034 
	C192.943176,75.593468 190.429123,78.729744 189.191727,82.069099 
	C185.654877,91.614090 184.883469,101.542770 187.021530,111.612183 
	C189.344833,122.553978 195.884933,130.324112 205.816528,134.776688 
	C213.964386,138.429550 222.820267,139.910217 231.829987,138.968246 
	C246.679535,137.415710 258.516235,130.950867 264.885284,116.890289 
	C266.593201,113.119751 266.667480,108.609230 267.577942,104.002060 
	C259.082458,104.002060 251.926773,103.910042 244.778336,104.096680 
	C243.645859,104.126244 241.855286,105.186264 241.539307,106.152573 
	C238.680847,114.894234 232.604004,117.929794 223.813065,117.047928 
	C218.107559,116.475571 212.191483,110.651146 212.012314,104.845703 
	C211.940369,102.514801 211.994980,100.179810 212.000946,97.846703 
	C212.020844,90.052597 215.042725,86.139687 222.517670,84.220810 
	C228.542816,82.674118 238.294800,85.387283 239.715576,89.799049 
	C241.126190,94.179245 243.352402,93.218887 246.072235,92.027466 
	C252.310120,89.294937 258.513824,86.484352 265.446747,83.385750 
	C262.864960,79.962555 260.475922,76.057449 257.373260,72.840645 
	C251.601471,66.856506 244.376740,63.341179 235.235245,62.012074 
z"/>
<path fill="#20202F" opacity="1.000000" stroke="none" 
	d="
M438.000000,83.000305 
	C438.000000,76.196182 438.000000,69.891945 438.000000,63.000000 
	C448.814270,63.000000 459.408752,62.754726 469.985138,63.086571 
	C476.989777,63.306351 484.024506,64.005890 490.943787,65.122620 
	C498.686981,66.372330 507.218079,77.263527 508.083191,85.289017 
	C508.916840,93.022438 508.744904,100.387421 503.980652,106.947014 
	C502.968994,108.339943 501.646118,109.506836 500.005829,111.274414 
	C504.262817,119.271103 508.795135,127.785004 513.700684,137.000000 
	C512.157043,137.000000 510.342987,137.000000 508.528931,137.000000 
	C502.868713,137.000000 497.159058,136.539780 491.563324,137.140350 
	C486.776672,137.654083 484.827209,135.415329 483.184082,131.623077 
	C481.450562,127.622169 479.416412,123.740509 477.302582,119.923622 
	C476.812805,119.039200 475.499207,118.156326 474.508087,118.087440 
	C471.215393,117.858582 467.896912,118.000923 464.169373,118.000923 
	C464.169373,124.285706 464.169373,130.357086 464.169373,136.711639 
	C455.359314,136.711639 446.963593,136.711639 438.000000,136.711639 
	C438.000000,118.994774 438.000000,101.247482 438.000000,83.000305 
M482.999329,90.439095 
	C481.788788,88.962669 480.693512,86.349144 479.347107,86.212669 
	C474.333160,85.704483 469.236755,86.009827 464.307129,86.009827 
	C464.307129,89.686569 464.307129,92.745773 464.307129,95.999245 
	C468.568481,95.999245 472.637390,96.560387 476.439209,95.794937 
	C478.832123,95.313156 480.824860,92.843971 482.999329,90.439095 
z"/>
<path fill="#19ADF2" opacity="1.000000" stroke="none" 
	d="
M42.791733,63.001694 
	C44.180637,64.150406 45.834473,65.271225 45.876499,66.449524 
	C46.124912,73.414764 45.998932,80.393356 45.998932,87.681503 
	C54.377846,87.681503 62.430817,87.681503 70.854874,87.681503 
	C70.854874,79.619194 70.854874,71.678467 70.854874,63.371643 
	C79.599419,63.371643 87.987289,63.371643 96.690163,63.371643 
	C96.690163,87.731232 96.690163,112.116997 96.690163,136.751862 
	C88.265083,136.751862 79.996872,136.751862 71.189087,136.751862 
	C71.189087,128.042679 71.189087,119.300056 71.189087,110.969376 
	C62.607620,110.969376 54.557663,110.969376 46.149956,110.969376 
	C46.149956,119.709549 46.149956,127.982689 46.149956,136.625946 
	C37.405685,136.625946 29.017710,136.625946 20.312252,136.625946 
	C20.312252,112.273659 20.312252,87.887894 20.312252,63.000355 
	C27.741529,63.000355 35.026749,63.000355 42.791733,63.001694 
z"/>
<path fill="#20202F" opacity="1.000000" stroke="none" 
	d="
M530.006470,63.000000 
	C547.134216,63.000000 563.763611,63.000000 580.696045,63.000000 
	C580.696045,70.609062 580.696045,78.006836 580.696045,86.000015 
	C569.186768,86.000015 557.600159,85.963875 546.014343,86.046608 
	C544.596069,86.056740 543.182434,86.703880 541.766602,87.055809 
	C541.885498,87.650421 542.004395,88.245041 542.123230,88.839653 
	C553.880676,88.839653 565.638062,88.839653 577.695496,88.839653 
	C577.695496,95.607430 577.695496,102.006676 577.695496,108.831444 
	C566.042480,108.831444 554.310303,108.831444 542.291687,108.831444 
	C542.291687,111.309868 542.291687,113.374817 542.291687,115.850647 
	C555.620422,115.850647 569.026489,115.850647 582.713745,115.850647 
	C582.713745,122.979729 582.713745,129.710968 582.713745,136.722610 
	C560.676392,136.722610 538.624146,136.722610 516.285400,136.722610 
	C516.285400,112.360802 516.285400,87.976860 516.285400,63.000000 
	C520.647522,63.000000 525.077820,63.000000 530.006470,63.000000 
z"/>
<path fill="#20202F" opacity="1.000000" stroke="none" 
	d="
M349.157288,136.281586 
	C350.801575,130.340714 352.394073,124.773064 354.316071,119.321594 
	C358.200592,108.303619 362.296021,97.360207 366.242706,86.363869 
	C369.006104,78.664467 371.667084,70.928314 374.446747,63.000587 
	C385.447266,63.000587 396.423370,62.862823 407.387909,63.155704 
	C408.952728,63.197506 411.237183,65.012543 411.854614,66.544518 
	C413.890472,71.595863 415.232239,76.921844 416.991699,82.090912 
	C419.665680,89.946846 422.476990,97.755936 425.209381,105.592110 
	C427.158295,111.181221 428.996033,116.810387 431.027374,122.369049 
	C432.726624,127.018959 434.634644,131.592560 436.652893,136.714264 
	C427.134399,136.714264 418.390259,136.714264 409.378723,136.714264 
	C408.938965,135.780563 408.018463,134.668976 407.926697,133.492722 
	C407.385742,126.559868 402.727325,126.710442 397.571808,126.934715 
	C391.269257,127.208885 384.945679,127.000000 378.406250,127.000000 
	C377.481567,130.314682 376.588409,133.516357 375.698212,136.707397 
	C366.832642,136.707397 358.043610,136.707397 349.157288,136.281586 
M396.948212,100.665489 
	C395.352753,97.010796 393.757294,93.356094 392.344391,90.119637 
	C390.228027,95.775703 387.949890,101.864082 385.762451,107.710030 
	C390.048523,107.710030 394.438019,107.710030 399.059235,107.710030 
	C398.299103,105.417030 397.649689,103.458046 396.948212,100.665489 
z"/>
<path fill="#19ADF2" opacity="1.000000" stroke="none" 
	d="
M106.720856,113.649963 
	C112.692078,96.594025 118.453560,79.876770 124.268761,63.003635 
	C135.549896,63.003635 146.517578,62.993553 157.485214,63.010582 
	C160.297882,63.014950 161.367966,64.245010 162.277695,67.229332 
	C166.571564,81.315086 171.309555,95.270805 176.141296,109.185349 
	C179.277634,118.217415 182.847260,127.099030 186.428513,136.593567 
	C177.161911,136.593567 168.475052,136.593567 159.320343,136.593567 
	C158.950836,135.819412 158.023361,134.704666 157.917572,133.516754 
	C157.339401,127.024208 153.263580,126.554382 147.950348,126.900368 
	C141.504608,127.320084 135.010696,127.000000 128.433563,127.000000 
	C127.475113,130.365646 126.590286,133.472733 125.645981,136.788696 
	C116.919052,136.788696 108.141716,136.788696 98.708092,136.788696 
	C101.378265,128.986572 103.944695,121.487602 106.720856,113.649963 
M142.098053,89.968300 
	C139.978073,95.922646 137.858078,101.876991 135.787262,107.693237 
	C140.010605,107.693237 144.370636,107.693237 148.996017,107.693237 
	C146.796341,101.378914 144.722092,95.424698 142.098053,89.968300 
z"/>
<path fill="#20202F" opacity="1.000000" stroke="none" 
	d="
M333.937073,133.009048 
	C316.816833,141.643616 300.020966,141.399750 283.841370,132.121841 
	C277.824799,128.671753 273.718323,122.851982 270.871918,116.040741 
	C267.131500,107.090096 266.759918,97.926422 269.297485,89.176804 
	C271.383087,81.985481 274.797241,75.026588 281.467041,69.931870 
	C289.739319,63.613083 299.164642,61.272224 308.814178,61.325939 
	C316.366333,61.367973 324.533661,63.046070 331.272247,66.352249 
	C338.371063,69.835152 345.321899,75.068573 346.923706,84.020683 
	C340.565887,86.698364 334.215607,89.321365 327.911469,92.051018 
	C325.019592,93.303185 323.027832,94.042824 321.724426,89.736069 
	C320.428284,85.453369 312.362396,83.038193 305.583862,84.010208 
	C300.057159,84.802719 295.479218,88.775070 295.158630,94.336624 
	C294.869629,99.350502 294.849365,104.747993 296.404602,109.411316 
	C298.582733,115.942268 303.966797,117.838646 312.869171,116.998367 
	C317.709869,116.541466 321.345978,112.595367 323.164246,106.786957 
	C323.556244,105.534668 325.935913,104.182236 327.447083,104.125252 
	C334.749390,103.849899 342.067810,104.001175 350.057800,104.001175 
	C350.037170,116.776093 343.215393,125.414215 333.937073,133.009048 
z"/>
<path fill="#19ADF2" opacity="1.000000" stroke="none" 
	d="
M235.674225,62.043575 
	C244.376740,63.341179 251.601471,66.856506 257.373260,72.840645 
	C260.475922,76.057449 262.864960,79.962555 265.446747,83.385750 
	C258.513824,86.484352 252.310120,89.294937 246.072235,92.027466 
	C243.352402,93.218887 241.126190,94.179245 239.715576,89.799049 
	C238.294800,85.387283 228.542816,82.674118 222.517670,84.220810 
	C215.042725,86.139687 212.020844,90.052597 212.000946,97.846703 
	C211.994980,100.179810 211.940369,102.514801 212.012314,104.845703 
	C212.191483,110.651146 218.107559,116.475571 223.813065,117.047928 
	C232.604004,117.929794 238.680847,114.894234 241.539307,106.152573 
	C241.855286,105.186264 243.645859,104.126244 244.778336,104.096680 
	C251.926773,103.910042 259.082458,104.002060 267.577942,104.002060 
	C266.667480,108.609230 266.593201,113.119751 264.885284,116.890289 
	C258.516235,130.950867 246.679535,137.415710 231.829987,138.968246 
	C222.820267,139.910217 213.964386,138.429550 205.816528,134.776688 
	C195.884933,130.324112 189.344833,122.553978 187.021530,111.612183 
	C184.883469,101.542770 185.654877,91.614090 189.191727,82.069099 
	C190.429123,78.729744 192.943176,75.593468 195.567154,73.091034 
	C202.127060,66.834999 209.757385,62.360489 219.145813,62.034988 
	C224.502777,61.849255 229.871704,62.008286 235.674225,62.043575 
z"/>
<path fill="#17AAF0" opacity="1.000000" stroke="none" 
	d="
M351.876312,72.045425 
	C351.302216,71.582413 350.728119,71.119408 350.061707,69.999222 
	C349.504517,67.631401 349.362946,65.734047 348.505768,64.249985 
	C346.856049,61.393799 344.801361,58.771511 342.914612,56.052208 
	C342.914612,56.052212 342.985992,56.012409 342.906982,55.831650 
	C342.687805,55.366093 342.473358,55.157711 342.184662,55.025742 
	C342.184662,55.025742 342.020905,54.576992 342.127747,54.008972 
	C344.368927,48.350971 339.611237,47.941036 337.252014,47.490658 
	C331.690460,46.428932 325.927795,46.086372 320.243530,46.058537 
	C293.444458,45.927311 266.644379,46.000038 239.844666,45.999992 
	C226.420364,45.999973 212.995956,46.032986 199.571838,45.983612 
	C194.177780,45.963772 188.784454,45.673607 183.390701,45.670494 
	C178.310150,45.667561 173.229446,45.880356 168.148819,45.998245 
	C168.178558,44.779572 168.208313,43.560898 168.998154,42.111389 
	C170.050598,41.818378 170.342957,41.756207 170.635315,41.694035 
	C171.313705,41.551266 171.992096,41.408501 173.436127,41.562912 
	C226.967697,41.904484 279.733643,41.960693 332.499512,41.916286 
	C333.663513,41.915306 334.826538,40.766094 335.990021,40.152504 
	C344.493866,39.567650 348.392700,44.925987 351.032928,51.856884 
	C352.125793,54.725887 353.108276,57.636948 354.594482,61.798950 
	C358.421783,51.562859 361.822693,42.467022 365.822815,33.013008 
	C366.599548,32.057373 366.777069,31.459919 366.954590,30.862465 
	C366.954590,30.862463 367.005859,30.413589 367.276581,30.071045 
	C367.778412,29.498512 367.914093,29.221725 367.954315,28.898142 
	C367.954315,28.898142 367.972900,28.978319 368.314453,28.937386 
	C370.090881,24.558750 371.525726,20.221050 372.960602,15.883350 
	C372.976685,15.541869 373.128571,15.278825 373.982239,15.012358 
	C375.364319,14.007327 376.180511,13.084157 376.996674,12.160990 
	C377.448669,12.111810 377.900696,12.062627 378.776855,12.226164 
	C379.459106,12.343082 379.717163,12.247280 379.975220,12.151472 
	C380.573547,12.205839 381.171906,12.260212 381.925354,12.949881 
	C383.089630,14.368059 384.098785,15.150941 385.107971,15.933825 
	C385.107971,15.933826 385.030151,15.992801 385.026489,16.338127 
	C385.717834,17.802135 386.412781,18.920816 387.107727,20.039505 
	C389.058044,24.729729 391.022552,29.414114 392.955444,34.111496 
	C396.110016,41.777809 396.904907,42.189842 405.611145,40.612076 
	C407.680450,42.594395 409.340424,44.298149 410.815369,46.253719 
	C409.753540,47.003586 408.876770,47.501644 407.568665,47.999443 
	C401.727325,48.018795 396.317322,48.038410 390.907318,48.058025 
	C390.907318,48.058025 390.989044,48.023903 390.951324,47.694107 
	C388.909698,44.594170 386.905762,41.824028 384.901855,39.053886 
	C384.901855,39.053886 384.974670,39.019878 384.898987,38.836376 
	C384.679871,38.361835 384.459778,38.150658 384.163055,38.019333 
	C384.163055,38.019333 384.016724,37.584419 383.922729,37.130775 
	C383.686707,36.380707 383.466248,36.164185 383.167267,36.027557 
	C381.965271,32.347878 380.763245,28.668198 379.512604,24.839626 
	C375.248688,35.448860 371.348846,45.633312 367.054321,55.648529 
	C364.657959,61.237141 361.605591,66.544456 358.036621,71.997742 
	C355.441711,72.026451 353.659027,72.035942 351.876312,72.045425 
z"/>
<path fill="#17AAF1" opacity="1.000000" stroke="none" 
	d="
M411.000427,46.001904 
	C409.340424,44.298149 407.680450,42.594395 406.010132,40.531429 
	C406.453217,40.129845 406.906708,40.087467 407.876587,40.320564 
	C408.925812,40.730640 409.458618,40.865246 410.287415,41.295555 
	C411.893738,41.726421 413.204010,41.979210 414.514404,41.979763 
	C462.649017,42.000011 510.783600,42.001225 558.918213,41.978474 
	C560.568604,41.977692 562.218933,41.704670 563.869263,41.558540 
	C564.164185,41.443981 564.471985,41.387585 565.377197,41.585831 
	C567.254272,42.757145 568.546692,43.731983 569.839111,44.706821 
	C568.295837,45.537987 566.744019,47.101017 565.210754,47.082939 
	C554.289307,46.954205 543.371948,46.235096 532.452759,46.223225 
	C519.555176,46.209202 506.657684,46.752197 493.758820,46.978596 
	C489.857452,47.047066 485.951538,46.873505 482.047974,46.797218 
	C476.649414,46.691711 471.250488,46.597458 465.852936,46.452606 
	C461.772308,46.343094 457.689026,45.961781 453.614990,46.054752 
	C445.407104,46.242065 437.204681,46.670170 428.994476,46.653164 
	C428.625671,45.701813 428.262360,45.096233 427.899048,44.490654 
	C427.599335,45.326694 427.299652,46.162735 426.559082,46.999084 
	C422.745453,46.666565 419.372742,46.333740 415.950531,45.666328 
	C414.934052,45.554794 413.967010,45.777851 412.666748,46.001045 
	C411.889130,46.001423 411.444763,46.001663 411.000427,46.001904 
z"/>
<path fill="#17A7EF" opacity="1.000000" stroke="none" 
	d="
M168.215851,46.372391 
	C173.229446,45.880356 178.310150,45.667561 183.390701,45.670494 
	C188.784454,45.673607 194.177780,45.963772 199.571838,45.983612 
	C212.995956,46.032986 226.420364,45.999973 239.844666,45.999992 
	C266.644379,46.000038 293.444458,45.927311 320.243530,46.058537 
	C325.927795,46.086372 331.690460,46.428932 337.252014,47.490658 
	C339.611237,47.941036 344.368927,48.350971 342.091187,53.772934 
	C339.135620,49.008831 334.506256,48.914646 329.378448,48.928032 
	C278.609406,49.060581 227.839783,49.046078 177.070740,48.912151 
	C174.139572,48.904419 171.212097,47.500618 168.215851,46.372391 
z"/>
<path fill="#14A4EE" opacity="1.000000" stroke="none" 
	d="
M429.000000,46.998932 
	C437.204681,46.670170 445.407104,46.242065 453.614990,46.054752 
	C457.689026,45.961781 461.772308,46.343094 465.852936,46.452606 
	C471.250488,46.597458 476.649414,46.691711 482.047974,46.797218 
	C485.951538,46.873505 489.857452,47.047066 493.758820,46.978596 
	C506.657684,46.752197 519.555176,46.209202 532.452759,46.223225 
	C543.371948,46.235096 554.289307,46.954205 565.210754,47.082939 
	C566.744019,47.101017 568.295837,45.537987 569.839111,44.706821 
	C568.546692,43.731983 567.254272,42.757145 565.532776,41.579910 
	C567.242310,38.887772 569.240540,39.347836 570.924072,41.816940 
	C572.555176,44.209259 572.392944,46.648781 569.694153,47.980885 
	C568.032715,48.800987 565.913574,48.961067 563.999451,48.962994 
	C514.041931,49.013245 464.084381,48.997265 414.126831,49.031837 
	C412.356689,49.033066 410.586853,49.433624 408.408325,49.435390 
	C407.999878,48.815037 407.999939,48.407368 408.000000,47.999699 
	C408.876770,47.501644 409.753540,47.003586 410.815369,46.253716 
	C411.444763,46.001663 411.889130,46.001423 413.041748,46.001053 
	C414.500000,46.000923 415.250000,46.000919 416.000000,46.000916 
	C419.372742,46.333740 422.745453,46.666565 426.892426,46.999496 
	C428.111115,46.999378 428.555542,46.999153 429.000000,46.998932 
z"/>
<path fill="#099DEA" opacity="1.000000" stroke="none" 
	d="
M335.525940,40.086395 
	C334.826538,40.766094 333.663513,41.915306 332.499512,41.916286 
	C279.733643,41.960693 226.967697,41.904484 173.667023,41.714828 
	C174.603058,41.044537 176.073242,40.062515 177.544724,40.060547 
	C230.050369,39.990276 282.556122,40.011688 335.525940,40.086395 
z"/>
<path fill="#089DEA" opacity="1.000000" stroke="none" 
	d="
M563.863220,41.085697 
	C562.218933,41.704670 560.568604,41.977692 558.918213,41.978474 
	C510.783600,42.001225 462.649017,42.000011 414.514404,41.979763 
	C413.204010,41.979210 411.893738,41.726421 410.292328,41.086166 
	C410.001251,40.581081 410.011353,40.162312 410.011353,40.162312 
	C439.673615,40.107410 469.335815,40.039574 498.998108,40.002144 
	C518.830688,39.977116 538.663330,39.979485 558.495789,40.021076 
	C560.283325,40.024826 562.070068,40.406624 563.863220,41.085697 
z"/>
<path fill="#18A1E9" opacity="1.000000" stroke="none" 
	d="
M372.634918,16.056532 
	C371.525726,20.221050 370.090881,24.558750 368.277100,28.920147 
	C369.368500,24.705803 370.838867,20.467760 372.634918,16.056532 
z"/>
<path fill="#17A7EF" opacity="1.000000" stroke="none" 
	d="
M342.957153,56.427773 
	C344.801361,58.771511 346.856049,61.393799 348.505768,64.249985 
	C349.362946,65.734047 349.504517,67.631401 349.960388,69.736740 
	C347.634186,65.688744 345.316956,61.246040 342.957153,56.427773 
z"/>
<path fill="#14A1E8" opacity="1.000000" stroke="none" 
	d="
M407.568665,47.999435 
	C407.999939,48.407368 407.999878,48.815037 407.999481,49.528454 
	C402.429077,49.482525 396.858978,49.130856 391.098083,48.418606 
	C396.317322,48.038410 401.727325,48.018795 407.568665,47.999435 
z"/>
<path fill="#14A1E8" opacity="1.000000" stroke="none" 
	d="
M384.959839,39.436226 
	C386.905762,41.824028 388.909698,44.594170 390.929108,47.732410 
	C386.631866,47.012383 386.201477,43.145954 384.959839,39.436226 
z"/>
<path fill="#17A7EF" opacity="1.000000" stroke="none" 
	d="
M352.034973,72.362762 
	C353.659027,72.035942 355.441711,72.026451 357.669922,72.029587 
	C356.277740,73.519463 354.464905,75.227440 352.034973,72.362762 
z"/>
<path fill="#13A1E9" opacity="1.000000" stroke="none" 
	d="
M387.397919,19.878372 
	C386.412781,18.920816 385.717834,17.802135 385.045258,16.293053 
	C385.941132,17.174183 386.814606,18.445715 387.397919,19.878372 
z"/>
<path fill="#13A1E9" opacity="1.000000" stroke="none" 
	d="
M376.648499,12.105146 
	C376.180511,13.084157 375.364319,14.007327 374.207214,14.943424 
	C374.677612,13.987334 375.488953,13.018319 376.648499,12.105146 
z"/>
<path fill="#13A1E9" opacity="1.000000" stroke="none" 
	d="
M385.054993,15.589588 
	C384.098785,15.150941 383.089630,14.368059 382.062439,13.229371 
	C383.030304,13.664161 384.016144,14.454757 385.054993,15.589588 
z"/>
<path fill="#17AAF0" opacity="1.000000" stroke="none" 
	d="
M409.684479,40.091835 
	C410.011353,40.162312 410.001251,40.581081 409.996338,40.790466 
	C409.458618,40.865246 408.925812,40.730640 408.214203,40.381245 
	C408.476166,40.118088 408.916870,40.069721 409.684479,40.091835 
z"/>
<path fill="#18A1E9" opacity="1.000000" stroke="none" 
	d="
M366.674103,31.013397 
	C366.777069,31.459919 366.599548,32.057373 366.142151,32.812042 
	C366.039368,32.367611 366.216492,31.765972 366.674103,31.013397 
z"/>
<path fill="#17A7EF" opacity="1.000000" stroke="none" 
	d="
M342.170105,55.276321 
	C342.473358,55.157711 342.687805,55.366093 342.892517,55.869865 
	C342.689880,55.901527 342.422699,55.714211 342.170105,55.276321 
z"/>
<path fill="#17A7EF" opacity="1.000000" stroke="none" 
	d="
M170.480377,41.423096 
	C170.342957,41.756207 170.050598,41.818378 169.311340,41.916275 
	C169.351410,41.685387 169.838425,41.418774 170.480377,41.423096 
z"/>
<path fill="#14A1E8" opacity="1.000000" stroke="none" 
	d="
M384.145264,38.277229 
	C384.459778,38.150658 384.679871,38.361835 384.891327,38.875813 
	C384.682037,38.910877 384.404724,38.723003 384.145264,38.277229 
z"/>
<path fill="#14A1E8" opacity="1.000000" stroke="none" 
	d="
M383.151855,36.286655 
	C383.466248,36.164185 383.686707,36.380707 383.897339,36.902744 
	C383.689453,36.934158 383.412964,36.739956 383.151855,36.286655 
z"/>
<path fill="#18A1E9" opacity="1.000000" stroke="none" 
	d="
M367.713287,28.991940 
	C367.914093,29.221725 367.778412,29.498512 367.351746,29.858013 
	C367.261536,29.686930 367.366882,29.386332 367.713287,28.991940 
z"/>
<path fill="#13A1E9" opacity="1.000000" stroke="none" 
	d="
M379.737946,12.097884 
	C379.717163,12.247280 379.459106,12.343082 379.113159,12.293264 
	C379.025299,12.147646 379.500671,12.044291 379.737946,12.097884 
z"/>
<path fill="#FFFFFF" opacity="1.000000" stroke="none" 
	d="
M482.998230,90.852715 
	C480.824860,92.843971 478.832123,95.313156 476.439209,95.794937 
	C472.637390,96.560387 468.568481,95.999245 464.307129,95.999245 
	C464.307129,92.745773 464.307129,89.686569 464.307129,86.009827 
	C469.236755,86.009827 474.333160,85.704483 479.347107,86.212669 
	C480.693512,86.349144 481.788788,88.962669 482.998230,90.852715 
z"/>
<path fill="#FFFFFF" opacity="1.000000" stroke="none" 
	d="
M396.974243,101.082275 
	C397.649689,103.458046 398.299103,105.417030 399.059235,107.710030 
	C394.438019,107.710030 390.048523,107.710030 385.762451,107.710030 
	C387.949890,101.864082 390.228027,95.775703 392.344391,90.119637 
	C393.757294,93.356094 395.352753,97.010796 396.974243,101.082275 
z"/>
<path fill="#FFFFFF" opacity="1.000000" stroke="none" 
	d="
M142.372955,89.719391 
	C144.722092,95.424698 146.796341,101.378914 148.996017,107.693237 
	C144.370636,107.693237 140.010605,107.693237 135.787262,107.693237 
	C137.858078,101.876991 139.978073,95.922646 142.372955,89.719391 
z"/>
<path fill="#17AAF0" opacity="1.000000" stroke="none" 
	d="
M428.994476,46.653160 
	C428.555542,46.999153 428.111115,46.999378 427.333313,46.999191 
	C427.299652,46.162735 427.599335,45.326694 427.899048,44.490654 
	C428.262360,45.096233 428.625671,45.701813 428.994476,46.653160 
z"/>
<path fill="#17AAF0" opacity="1.000000" stroke="none" 
	d="
M415.950531,45.666328 
	C415.250000,46.000919 414.500000,46.000923 413.375000,46.000916 
	C413.967010,45.777851 414.934052,45.554794 415.950531,45.666328 
z"/>
</svg>